<svg xmlns="http://www.w3.org/2000/svg" viewBox="0 0 256 257"><defs><linearGradient id="a" x1=".5" x2=".5" y2="1"><stop stop-color="#41D1FF"/><stop offset="1" stop-color="#BD34FE"/></linearGradient><linearGradient id="b" x1=".5" x2=".5" y2="1"><stop stop-color="#FFEA83"/><stop offset=".08" stop-color="#FFDD35"/><stop offset="1" stop-color="#FFA800"/></linearGradient></defs><path fill="url(#a)" d="M255.153 37.938L134.897 252.976c-2.225 3.996-7.978 4.01-10.224.024L.875 37.926c-2.49-4.41 1.395-9.7 6.33-8.73l120.748 23.39a6 6 0 0 0 2.234-.002l118.64-23.36c4.926-.97 8.82 4.31 6.34 8.72z"/><path fill="url(#b)" d="M185.432.063l-79.2 15.6a3.2 3.2 0 0 0-2.592 3.128l-.8 85.936a3.2 3.2 0 0 0 4.128 3.04l22.176-6.408a3.2 3.2 0 0 1 4.032 3.064l-1.296 39.536a3.2 3.2 0 0 0 5.696 2.016l2.352-2.728l56.304-96.824a3.2 3.2 0 0 0-3.696-4.672l-22.256 6.456a3.2 3.2 0 0 1-4.04-3.08l3.6-39.968A3.2 3.2 0 0 0 185.432.063z"/></svg>

